<svg width="150" height="40" viewBox="0 0 150 40" fill="none" xmlns="http://www.w3.org/2000/svg">
<path d="M6.76172 21.5H3.04688L3.07031 18.7578H6.76172C7.68359 18.7578 8.46094 18.5508 9.09375 18.1367C9.72656 17.7148 10.2031 17.1016 10.5234 16.2969C10.8516 15.4922 11.0156 14.5195 11.0156 13.3789V12.5469C11.0156 11.6719 10.9219 10.9023 10.7344 10.2383C10.5547 9.57422 10.2852 9.01562 9.92578 8.5625C9.56641 8.10938 9.125 7.76953 8.60156 7.54297C8.07812 7.30859 7.47656 7.19141 6.79688 7.19141H2.97656V4.4375H6.79688C7.9375 4.4375 8.98047 4.63281 9.92578 5.02344C10.8789 5.40625 11.7031 5.95703 12.3984 6.67578C13.0938 7.39453 13.6289 8.25391 14.0039 9.25391C14.3867 10.2461 14.5781 11.3516 14.5781 12.5703V13.3789C14.5781 14.5898 14.3867 15.6953 14.0039 16.6953C13.6289 17.6953 13.0938 18.5547 12.3984 19.2734C11.7109 19.9844 10.8867 20.5352 9.92578 20.9258C8.97266 21.3086 7.91797 21.5 6.76172 21.5ZM5.03906 4.4375V21.5H1.52344V4.4375H5.03906ZM20.2969 11.5859V21.5H16.9219V8.82031H20.0977L20.2969 11.5859ZM24.1172 8.73828L24.0586 11.8672C23.8945 11.8438 23.6953 11.8242 23.4609 11.8086C23.2344 11.7852 23.0273 11.7734 22.8398 11.7734C22.3633 11.7734 21.9492 11.8359 21.5977 11.9609C21.2539 12.0781 20.9648 12.2539 20.7305 12.4883C20.5039 12.7227 20.332 13.0078 20.2148 13.3438C20.1055 13.6797 20.043 14.0625 20.0273 14.4922L19.3477 14.2812C19.3477 13.4609 19.4297 12.707 19.5938 12.0195C19.7578 11.3242 19.9961 10.7188 20.3086 10.2031C20.6289 9.6875 21.0195 9.28906 21.4805 9.00781C21.9414 8.72656 22.4688 8.58594 23.0625 8.58594C23.25 8.58594 23.4414 8.60156 23.6367 8.63281C23.832 8.65625 23.9922 8.69141 24.1172 8.73828ZM32.1562 18.6406V12.9922C32.1562 12.5859 32.0898 12.2383 31.957 11.9492C31.8242 11.6523 31.6172 11.4219 31.3359 11.2578C31.0625 11.0938 30.707 11.0117 30.2695 11.0117C29.8945 11.0117 29.5703 11.0781 29.2969 11.2109C29.0234 11.3359 28.8125 11.5195 28.6641 11.7617C28.5156 11.9961 28.4414 12.2734 28.4414 12.5938H25.0664C25.0664 12.0547 25.1914 11.543 25.4414 11.0586C25.6914 10.5742 26.0547 10.1484 26.5312 9.78125C27.0078 9.40625 27.5742 9.11328 28.2305 8.90234C28.8945 8.69141 29.6367 8.58594 30.457 8.58594C31.4414 8.58594 32.3164 8.75 33.082 9.07812C33.8477 9.40625 34.4492 9.89844 34.8867 10.5547C35.332 11.2109 35.5547 12.0312 35.5547 13.0156V18.4414C35.5547 19.1367 35.5977 19.707 35.6836 20.1523C35.7695 20.5898 35.8945 20.9727 36.0586 21.3008V21.5H32.6484C32.4844 21.1562 32.3594 20.7266 32.2734 20.2109C32.1953 19.6875 32.1562 19.1641 32.1562 18.6406ZM32.6016 13.7773L32.625 15.6875H30.7383C30.293 15.6875 29.9062 15.7383 29.5781 15.8398C29.25 15.9414 28.9805 16.0859 28.7695 16.2734C28.5586 16.4531 28.4023 16.6641 28.3008 16.9062C28.207 17.1484 28.1602 17.4141 28.1602 17.7031C28.1602 17.9922 28.2266 18.2539 28.3594 18.4883C28.4922 18.7148 28.6836 18.8945 28.9336 19.0273C29.1836 19.1523 29.4766 19.2148 29.8125 19.2148C30.3203 19.2148 30.7617 19.1133 31.1367 18.9102C31.5117 18.707 31.8008 18.457 32.0039 18.1602C32.2148 17.8633 32.3242 17.582 32.332 17.3164L33.2227 18.7461C33.0977 19.0664 32.9258 19.3984 32.707 19.7422C32.4961 20.0859 32.2266 20.4102 31.8984 20.7148C31.5703 21.0117 31.1758 21.2578 30.7148 21.4531C30.2539 21.6406 29.707 21.7344 29.0742 21.7344C28.2695 21.7344 27.5391 21.5742 26.8828 21.2539C26.2344 20.9258 25.7188 20.4766 25.3359 19.9062C24.9609 19.3281 24.7734 18.6719 24.7734 17.9375C24.7734 17.2734 24.8984 16.6836 25.1484 16.168C25.3984 15.6523 25.7656 15.2188 26.25 14.8672C26.7422 14.5078 27.3555 14.2383 28.0898 14.0586C28.8242 13.8711 29.6758 13.7773 30.6445 13.7773H32.6016ZM41.7773 18.2188L44.4141 8.82031H46.5586L45.8672 12.5117L43.2305 21.5H41.4375L41.7773 18.2188ZM40.4414 8.82031L42.3281 18.207L42.5039 21.5H40.3945L37.1836 8.82031H40.4414ZM48.9727 18.0547L50.8125 8.82031H54.082L50.8711 21.5H48.7734L48.9727 18.0547ZM46.8516 8.82031L49.4766 18.1484L49.8398 21.5H48.0352L45.3984 12.5234L44.7305 8.82031H46.8516ZM67.207 21.5H63.4922L63.5156 18.7578H67.207C68.1289 18.7578 68.9062 18.5508 69.5391 18.1367C70.1719 17.7148 70.6484 17.1016 70.9688 16.2969C71.2969 15.4922 71.4609 14.5195 71.4609 13.3789V12.5469C71.4609 11.6719 71.3672 10.9023 71.1797 10.2383C71 9.57422 70.7305 9.01562 70.3711 8.5625C70.0117 8.10938 69.5703 7.76953 69.0469 7.54297C68.5234 7.30859 67.9219 7.19141 67.2422 7.19141H63.4219V4.4375H67.2422C68.3828 4.4375 69.4258 4.63281 70.3711 5.02344C71.3242 5.40625 72.1484 5.95703 72.8438 6.67578C73.5391 7.39453 74.0742 8.25391 74.4492 9.25391C74.832 10.2461 75.0234 11.3516 75.0234 12.5703V13.3789C75.0234 14.5898 74.832 15.6953 74.4492 16.6953C74.0742 17.6953 73.5391 18.5547 72.8438 19.2734C72.1562 19.9844 71.332 20.5352 70.3711 20.9258C69.418 21.3086 68.3633 21.5 67.207 21.5ZM65.4844 4.4375V21.5H61.9688V4.4375H65.4844ZM83.2031 21.7344C82.2188 21.7344 81.3359 21.5781 80.5547 21.2656C79.7734 20.9453 79.1094 20.5039 78.5625 19.9414C78.0234 19.3789 77.6094 18.7266 77.3203 17.9844C77.0312 17.2344 76.8867 16.4375 76.8867 15.5938V15.125C76.8867 14.1641 77.0234 13.2852 77.2969 12.4883C77.5703 11.6914 77.9609 11 78.4688 10.4141C78.9844 9.82812 79.6094 9.37891 80.3438 9.06641C81.0781 8.74609 81.9062 8.58594 82.8281 8.58594C83.7266 8.58594 84.5234 8.73438 85.2188 9.03125C85.9141 9.32812 86.4961 9.75 86.9648 10.2969C87.4414 10.8438 87.8008 11.5 88.043 12.2656C88.2852 13.0234 88.4062 13.8672 88.4062 14.7969V16.2031H78.3281V13.9531H85.0898V13.6953C85.0898 13.2266 85.0039 12.8086 84.832 12.4414C84.668 12.0664 84.418 11.7695 84.082 11.5508C83.7461 11.332 83.3164 11.2227 82.793 11.2227C82.3477 11.2227 81.9648 11.3203 81.6445 11.5156C81.3242 11.7109 81.0625 11.9844 80.8594 12.3359C80.6641 12.6875 80.5156 13.1016 80.4141 13.5781C80.3203 14.0469 80.2734 14.5625 80.2734 15.125V15.5938C80.2734 16.1016 80.3438 16.5703 80.4844 17C80.6328 17.4297 80.8398 17.8008 81.1055 18.1133C81.3789 18.4258 81.707 18.668 82.0898 18.8398C82.4805 19.0117 82.9219 19.0977 83.4141 19.0977C84.0234 19.0977 84.5898 18.9805 85.1133 18.7461C85.6445 18.5039 86.1016 18.1406 86.4844 17.6562L88.125 19.4375C87.8594 19.8203 87.4961 20.1875 87.0352 20.5391C86.582 20.8906 86.0352 21.1797 85.3945 21.4062C84.7539 21.625 84.0234 21.7344 83.2031 21.7344ZM97.1836 17.9961C97.1836 17.7539 97.1133 17.5352 96.9727 17.3398C96.832 17.1445 96.5703 16.9648 96.1875 16.8008C95.8125 16.6289 95.2695 16.4727 94.5586 16.332C93.918 16.1914 93.3203 16.0156 92.7656 15.8047C92.2188 15.5859 91.7422 15.3242 91.3359 15.0195C90.9375 14.7148 90.625 14.3555 90.3984 13.9414C90.1719 13.5195 90.0586 13.0391 90.0586 12.5C90.0586 11.9688 90.1719 11.4688 90.3984 11C90.6328 10.5312 90.9648 10.1172 91.3945 9.75781C91.832 9.39062 92.3633 9.10547 92.9883 8.90234C93.6211 8.69141 94.332 8.58594 95.1211 8.58594C96.2227 8.58594 97.168 8.76172 97.957 9.11328C98.7539 9.46484 99.3633 9.94922 99.7852 10.5664C100.215 11.1758 100.43 11.8711 100.43 12.6523H97.0547C97.0547 12.3242 96.9844 12.0312 96.8438 11.7734C96.7109 11.5078 96.5 11.3008 96.2109 11.1523C95.9297 10.9961 95.5625 10.918 95.1094 10.918C94.7344 10.918 94.4102 10.9844 94.1367 11.1172C93.8633 11.2422 93.6523 11.4141 93.5039 11.6328C93.3633 11.8438 93.293 12.0781 93.293 12.3359C93.293 12.5312 93.332 12.707 93.4102 12.8633C93.4961 13.0117 93.6328 13.1484 93.8203 13.2734C94.0078 13.3984 94.25 13.5156 94.5469 13.625C94.8516 13.7266 95.2266 13.8203 95.6719 13.9062C96.5859 14.0938 97.4023 14.3398 98.1211 14.6445C98.8398 14.9414 99.4102 15.3477 99.832 15.8633C100.254 16.3711 100.465 17.0391 100.465 17.8672C100.465 18.4297 100.34 18.9453 100.09 19.4141C99.8398 19.8828 99.4805 20.293 99.0117 20.6445C98.543 20.9883 97.9805 21.2578 97.3242 21.4531C96.6758 21.6406 95.9453 21.7344 95.1328 21.7344C93.9531 21.7344 92.9531 21.5234 92.1328 21.1016C91.3203 20.6797 90.7031 20.1445 90.2812 19.4961C89.8672 18.8398 89.6602 18.168 89.6602 17.4805H92.8594C92.875 17.9414 92.9922 18.3125 93.2109 18.5938C93.4375 18.875 93.7227 19.0781 94.0664 19.2031C94.418 19.3281 94.7969 19.3906 95.2031 19.3906C95.6406 19.3906 96.0039 19.332 96.293 19.2148C96.582 19.0898 96.8008 18.9258 96.9492 18.7227C97.1055 18.5117 97.1836 18.2695 97.1836 17.9961ZM106.031 3.48828V21.5H102.656V3.48828H106.031ZM114.023 8.82031L108.516 15.1016L105.562 18.0898L104.332 15.6523L106.676 12.6758L109.969 8.82031H114.023ZM110.52 21.5L106.77 15.6406L109.102 13.6016L114.41 21.5H110.52ZM121.688 8.82031V11.2109H114.305V8.82031H121.688ZM116.133 5.69141H119.508V17.6797C119.508 18.0469 119.555 18.3281 119.648 18.5234C119.75 18.7188 119.898 18.8555 120.094 18.9336C120.289 19.0039 120.535 19.0391 120.832 19.0391C121.043 19.0391 121.23 19.0312 121.395 19.0156C121.566 18.9922 121.711 18.9688 121.828 18.9453L121.84 21.4297C121.551 21.5234 121.238 21.5977 120.902 21.6523C120.566 21.707 120.195 21.7344 119.789 21.7344C119.047 21.7344 118.398 21.6133 117.844 21.3711C117.297 21.1211 116.875 20.7227 116.578 20.1758C116.281 19.6289 116.133 18.9102 116.133 18.0195V5.69141ZM122.766 15.2891V15.043C122.766 14.1133 122.898 13.2578 123.164 12.4766C123.43 11.6875 123.816 11.0039 124.324 10.4258C124.832 9.84766 125.457 9.39844 126.199 9.07812C126.941 8.75 127.793 8.58594 128.754 8.58594C129.715 8.58594 130.57 8.75 131.32 9.07812C132.07 9.39844 132.699 9.84766 133.207 10.4258C133.723 11.0039 134.113 11.6875 134.379 12.4766C134.645 13.2578 134.777 14.1133 134.777 15.043V15.2891C134.777 16.2109 134.645 17.0664 134.379 17.8555C134.113 18.6367 133.723 19.3203 133.207 19.9062C132.699 20.4844 132.074 20.9336 131.332 21.2539C130.59 21.5742 129.738 21.7344 128.777 21.7344C127.816 21.7344 126.961 21.5742 126.211 21.2539C125.469 20.9336 124.84 20.4844 124.324 19.9062C123.816 19.3203 123.43 18.6367 123.164 17.8555C122.898 17.0664 122.766 16.2109 122.766 15.2891ZM126.141 15.043V15.2891C126.141 15.8203 126.188 16.3164 126.281 16.7773C126.375 17.2383 126.523 17.6445 126.727 17.9961C126.938 18.3398 127.211 18.6094 127.547 18.8047C127.883 19 128.293 19.0977 128.777 19.0977C129.246 19.0977 129.648 19 129.984 18.8047C130.32 18.6094 130.59 18.3398 130.793 17.9961C130.996 17.6445 131.145 17.2383 131.238 16.7773C131.34 16.3164 131.391 15.8203 131.391 15.2891V15.043C131.391 14.5273 131.34 14.043 131.238 13.5898C131.145 13.1289 130.992 12.7227 130.781 12.3711C130.578 12.0117 130.309 11.7305 129.973 11.5273C129.637 11.3242 129.23 11.2227 128.754 11.2227C128.277 11.2227 127.871 11.3242 127.535 11.5273C127.207 11.7305 126.938 12.0117 126.727 12.3711C126.523 12.7227 126.375 13.1289 126.281 13.5898C126.188 14.043 126.141 14.5273 126.141 15.043ZM140.227 11.2578V26.375H136.852V8.82031H139.98L140.227 11.2578ZM148.254 15.0195V15.2656C148.254 16.1875 148.145 17.043 147.926 17.832C147.715 18.6211 147.402 19.3086 146.988 19.8945C146.574 20.4727 146.059 20.9258 145.441 21.2539C144.832 21.5742 144.129 21.7344 143.332 21.7344C142.559 21.7344 141.887 21.5781 141.316 21.2656C140.746 20.9531 140.266 20.5156 139.875 19.9531C139.492 19.3828 139.184 18.7227 138.949 17.9727C138.715 17.2227 138.535 16.418 138.41 15.5586V14.9141C138.535 13.9922 138.715 13.1484 138.949 12.3828C139.184 11.6094 139.492 10.9414 139.875 10.3789C140.266 9.80859 140.742 9.36719 141.305 9.05469C141.875 8.74219 142.543 8.58594 143.309 8.58594C144.113 8.58594 144.82 8.73828 145.43 9.04297C146.047 9.34766 146.562 9.78516 146.977 10.3555C147.398 10.9258 147.715 11.6055 147.926 12.3945C148.145 13.1836 148.254 14.0586 148.254 15.0195ZM144.867 15.2656V15.0195C144.867 14.4805 144.82 13.9844 144.727 13.5312C144.641 13.0703 144.5 12.668 144.305 12.3242C144.117 11.9805 143.867 11.7148 143.555 11.5273C143.25 11.332 142.879 11.2344 142.441 11.2344C141.98 11.2344 141.586 11.3086 141.258 11.457C140.938 11.6055 140.676 11.8203 140.473 12.1016C140.27 12.3828 140.117 12.7188 140.016 13.1094C139.914 13.5 139.852 13.9414 139.828 14.4336V16.0625C139.867 16.6406 139.977 17.1602 140.156 17.6211C140.336 18.0742 140.613 18.4336 140.988 18.6992C141.363 18.9648 141.855 19.0977 142.465 19.0977C142.91 19.0977 143.285 19 143.59 18.8047C143.895 18.6016 144.141 18.3242 144.328 17.9727C144.523 17.6211 144.66 17.2148 144.738 16.7539C144.824 16.293 144.867 15.7969 144.867 15.2656Z" fill="#C1C7CD"/>
<path d="M100.443 35.5H99.3594V28.4922C99.3594 28.0352 99.4414 27.6504 99.6055 27.3379C99.7734 27.0215 100.014 26.7832 100.326 26.623C100.639 26.459 101.01 26.377 101.439 26.377C101.564 26.377 101.689 26.3848 101.814 26.4004C101.943 26.416 102.068 26.4395 102.189 26.4707L102.131 27.3555C102.049 27.3359 101.955 27.3223 101.85 27.3145C101.748 27.3066 101.646 27.3027 101.545 27.3027C101.314 27.3027 101.115 27.3496 100.947 27.4434C100.783 27.5332 100.658 27.666 100.572 27.8418C100.486 28.0176 100.443 28.2344 100.443 28.4922V35.5ZM101.791 29.1602V29.9922H98.3574V29.1602H101.791ZM102.711 32.4004V32.2656C102.711 31.8086 102.777 31.3848 102.91 30.9941C103.043 30.5996 103.234 30.2578 103.484 29.9688C103.734 29.6758 104.037 29.4492 104.393 29.2891C104.748 29.125 105.146 29.043 105.588 29.043C106.033 29.043 106.434 29.125 106.789 29.2891C107.148 29.4492 107.453 29.6758 107.703 29.9688C107.957 30.2578 108.15 30.5996 108.283 30.9941C108.416 31.3848 108.482 31.8086 108.482 32.2656V32.4004C108.482 32.8574 108.416 33.2812 108.283 33.6719C108.15 34.0625 107.957 34.4043 107.703 34.6973C107.453 34.9863 107.15 35.2129 106.795 35.377C106.443 35.5371 106.045 35.6172 105.6 35.6172C105.154 35.6172 104.754 35.5371 104.398 35.377C104.043 35.2129 103.738 34.9863 103.484 34.6973C103.234 34.4043 103.043 34.0625 102.91 33.6719C102.777 33.2812 102.711 32.8574 102.711 32.4004ZM103.795 32.2656V32.4004C103.795 32.7168 103.832 33.0156 103.906 33.2969C103.98 33.5742 104.092 33.8203 104.24 34.0352C104.393 34.25 104.582 34.4199 104.809 34.5449C105.035 34.666 105.299 34.7266 105.6 34.7266C105.896 34.7266 106.156 34.666 106.379 34.5449C106.605 34.4199 106.793 34.25 106.941 34.0352C107.09 33.8203 107.201 33.5742 107.275 33.2969C107.354 33.0156 107.393 32.7168 107.393 32.4004V32.2656C107.393 31.9531 107.354 31.6582 107.275 31.3809C107.201 31.0996 107.088 30.8516 106.936 30.6367C106.787 30.418 106.6 30.2461 106.373 30.1211C106.15 29.9961 105.889 29.9336 105.588 29.9336C105.291 29.9336 105.029 29.9961 104.803 30.1211C104.58 30.2461 104.393 30.418 104.24 30.6367C104.092 30.8516 103.98 31.0996 103.906 31.3809C103.832 31.6582 103.795 31.9531 103.795 32.2656ZM110.926 30.1562V35.5H109.842V29.1602H110.896L110.926 30.1562ZM112.906 29.125L112.9 30.1328C112.811 30.1133 112.725 30.1016 112.643 30.0977C112.564 30.0898 112.475 30.0859 112.373 30.0859C112.123 30.0859 111.902 30.125 111.711 30.2031C111.52 30.2812 111.357 30.3906 111.225 30.5312C111.092 30.6719 110.986 30.8398 110.908 31.0352C110.834 31.2266 110.785 31.4375 110.762 31.668L110.457 31.8438C110.457 31.4609 110.494 31.1016 110.568 30.7656C110.646 30.4297 110.766 30.1328 110.926 29.875C111.086 29.6133 111.289 29.4102 111.535 29.2656C111.785 29.1172 112.082 29.043 112.426 29.043C112.504 29.043 112.594 29.0527 112.695 29.0723C112.797 29.0879 112.867 29.1055 112.906 29.125ZM118.18 26.9688V35.5H117.049V26.9688H118.18ZM121.754 30.8066V31.7324H117.934V30.8066H121.754ZM122.334 26.9688V27.8945H117.934V26.9688H122.334ZM124.695 29.1602V35.5H123.605V29.1602H124.695ZM123.523 27.4785C123.523 27.3027 123.576 27.1543 123.682 27.0332C123.791 26.9121 123.951 26.8516 124.162 26.8516C124.369 26.8516 124.527 26.9121 124.637 27.0332C124.75 27.1543 124.807 27.3027 124.807 27.4785C124.807 27.6465 124.75 27.791 124.637 27.9121C124.527 28.0293 124.369 28.0879 124.162 28.0879C123.951 28.0879 123.791 28.0293 123.682 27.9121C123.576 27.791 123.523 27.6465 123.523 27.4785ZM130.543 29.1602H131.527V35.3652C131.527 35.9238 131.414 36.4004 131.188 36.7949C130.961 37.1895 130.645 37.4883 130.238 37.6914C129.836 37.8984 129.371 38.002 128.844 38.002C128.625 38.002 128.367 37.9668 128.07 37.8965C127.777 37.8301 127.488 37.7148 127.203 37.5508C126.922 37.3906 126.686 37.1738 126.494 36.9004L127.062 36.2559C127.328 36.5762 127.605 36.7988 127.895 36.9238C128.188 37.0488 128.477 37.1113 128.762 37.1113C129.105 37.1113 129.402 37.0469 129.652 36.918C129.902 36.7891 130.096 36.5977 130.232 36.3438C130.373 36.0938 130.443 35.7852 130.443 35.418V30.5547L130.543 29.1602ZM126.178 32.4004V32.2773C126.178 31.793 126.234 31.3535 126.348 30.959C126.465 30.5605 126.631 30.2188 126.846 29.9336C127.064 29.6484 127.328 29.4297 127.637 29.2773C127.945 29.1211 128.293 29.043 128.68 29.043C129.078 29.043 129.426 29.1133 129.723 29.2539C130.023 29.3906 130.277 29.5918 130.484 29.8574C130.695 30.1191 130.861 30.4355 130.982 30.8066C131.104 31.1777 131.188 31.5977 131.234 32.0664V32.6055C131.191 33.0703 131.107 33.4883 130.982 33.8594C130.861 34.2305 130.695 34.5469 130.484 34.8086C130.277 35.0703 130.023 35.2715 129.723 35.4121C129.422 35.5488 129.07 35.6172 128.668 35.6172C128.289 35.6172 127.945 35.5371 127.637 35.377C127.332 35.2168 127.07 34.9922 126.852 34.7031C126.633 34.4141 126.465 34.0742 126.348 33.6836C126.234 33.2891 126.178 32.8613 126.178 32.4004ZM127.262 32.2773V32.4004C127.262 32.7168 127.293 33.0137 127.355 33.291C127.422 33.5684 127.521 33.8125 127.654 34.0234C127.791 34.2344 127.965 34.4004 128.176 34.5215C128.387 34.6387 128.639 34.6973 128.932 34.6973C129.291 34.6973 129.588 34.6211 129.822 34.4688C130.057 34.3164 130.242 34.1152 130.379 33.8652C130.52 33.6152 130.629 33.3438 130.707 33.0508V31.6387C130.664 31.4238 130.598 31.2168 130.508 31.0176C130.422 30.8145 130.309 30.6348 130.168 30.4785C130.031 30.3184 129.861 30.1914 129.658 30.0977C129.455 30.0039 129.217 29.957 128.943 29.957C128.646 29.957 128.391 30.0195 128.176 30.1445C127.965 30.2656 127.791 30.4336 127.654 30.6484C127.521 30.8594 127.422 31.1055 127.355 31.3867C127.293 31.6641 127.262 31.9609 127.262 32.2773ZM134.252 30.4199V35.5H133.162V29.1602H134.193L134.252 30.4199ZM134.029 32.0898L133.525 32.0723C133.529 31.6387 133.586 31.2383 133.695 30.8711C133.805 30.5 133.967 30.1777 134.182 29.9043C134.396 29.6309 134.664 29.4199 134.984 29.2715C135.305 29.1191 135.676 29.043 136.098 29.043C136.395 29.043 136.668 29.0859 136.918 29.1719C137.168 29.2539 137.385 29.3848 137.568 29.5645C137.752 29.7441 137.895 29.9746 137.996 30.2559C138.098 30.5371 138.148 30.877 138.148 31.2754V35.5H137.064V31.3281C137.064 30.9961 137.008 30.7305 136.895 30.5312C136.785 30.332 136.629 30.1875 136.426 30.0977C136.223 30.0039 135.984 29.957 135.711 29.957C135.391 29.957 135.123 30.0137 134.908 30.127C134.693 30.2402 134.521 30.3965 134.393 30.5957C134.264 30.7949 134.17 31.0234 134.111 31.2812C134.057 31.5352 134.029 31.8047 134.029 32.0898ZM138.137 31.4922L137.41 31.7148C137.414 31.3672 137.471 31.0332 137.58 30.7129C137.693 30.3926 137.855 30.1074 138.066 29.8574C138.281 29.6074 138.545 29.4102 138.857 29.2656C139.17 29.1172 139.527 29.043 139.93 29.043C140.27 29.043 140.57 29.0879 140.832 29.1777C141.098 29.2676 141.32 29.4062 141.5 29.5938C141.684 29.7773 141.822 30.0137 141.916 30.3027C142.01 30.5918 142.057 30.9355 142.057 31.334V35.5H140.967V31.3223C140.967 30.9668 140.91 30.6914 140.797 30.4961C140.688 30.2969 140.531 30.1582 140.328 30.0801C140.129 29.998 139.891 29.957 139.613 29.957C139.375 29.957 139.164 29.998 138.98 30.0801C138.797 30.1621 138.643 30.2754 138.518 30.4199C138.393 30.5605 138.297 30.7227 138.23 30.9062C138.168 31.0898 138.137 31.2852 138.137 31.4922ZM147.436 34.416V31.1523C147.436 30.9023 147.385 30.6855 147.283 30.502C147.186 30.3145 147.037 30.1699 146.838 30.0684C146.639 29.9668 146.393 29.916 146.1 29.916C145.826 29.916 145.586 29.9629 145.379 30.0566C145.176 30.1504 145.016 30.2734 144.898 30.4258C144.785 30.5781 144.729 30.7422 144.729 30.918H143.645C143.645 30.6914 143.703 30.4668 143.82 30.2441C143.938 30.0215 144.105 29.8203 144.324 29.6406C144.547 29.457 144.812 29.3125 145.121 29.207C145.434 29.0977 145.781 29.043 146.164 29.043C146.625 29.043 147.031 29.1211 147.383 29.2773C147.738 29.4336 148.016 29.6699 148.215 29.9863C148.418 30.2988 148.52 30.6914 148.52 31.1641V34.1172C148.52 34.3281 148.537 34.5527 148.572 34.791C148.611 35.0293 148.668 35.2344 148.742 35.4062V35.5H147.611C147.557 35.375 147.514 35.209 147.482 35.002C147.451 34.791 147.436 34.5957 147.436 34.416ZM147.623 31.6562L147.635 32.418H146.539C146.23 32.418 145.955 32.4434 145.713 32.4941C145.471 32.541 145.268 32.6133 145.104 32.7109C144.939 32.8086 144.814 32.9316 144.729 33.0801C144.643 33.2246 144.6 33.3945 144.6 33.5898C144.6 33.7891 144.645 33.9707 144.734 34.1348C144.824 34.2988 144.959 34.4297 145.139 34.5273C145.322 34.6211 145.547 34.668 145.812 34.668C146.145 34.668 146.438 34.5977 146.691 34.457C146.945 34.3164 147.146 34.1445 147.295 33.9414C147.447 33.7383 147.529 33.541 147.541 33.3496L148.004 33.8711C147.977 34.0352 147.902 34.2168 147.781 34.416C147.66 34.6152 147.498 34.8066 147.295 34.9902C147.096 35.1699 146.857 35.3203 146.58 35.4414C146.307 35.5586 145.998 35.6172 145.654 35.6172C145.225 35.6172 144.848 35.5332 144.523 35.3652C144.203 35.1973 143.953 34.9727 143.773 34.6914C143.598 34.4062 143.51 34.0879 143.51 33.7363C143.51 33.3965 143.576 33.0977 143.709 32.8398C143.842 32.5781 144.033 32.3613 144.283 32.1895C144.533 32.0137 144.834 31.8809 145.186 31.791C145.537 31.7012 145.93 31.6562 146.363 31.6562H147.623Z" fill="#C1C7CD"/>
</svg>
