<?xml version="1.0" encoding="UTF-8"?>
<svg id="_레이어_1" data-name="레이어 1" xmlns="http://www.w3.org/2000/svg" viewBox="0 0 600 600">
  <defs>
    <style>
      .cls-1 {
        fill: #0f0f0f;
        stroke-width: 0px;
      }
    </style>
  </defs>
  <path class="cls-1" d="m215.37,215.8h-84.55v82.35h82.79c1.22,0,2.2.99,2.2,2.2s-.99,2.2-2.2,2.2h-82.79v82.35h84.55c46.7,0,84.55-37.86,84.55-84.55h0c0-46.7-37.86-84.55-84.55-84.55Z"/>
  <path class="cls-1" d="m384.92,215.8h-84.55v82.35h82.79c1.22,0,2.2.99,2.2,2.2s-.99,2.2-2.2,2.2h-82.79v82.35h84.55c46.7,0,84.55-37.86,84.55-84.55h0c0-46.7-37.86-84.55-84.55-84.55Z"/>
</svg>