<svg width="361" height="254" viewBox="0 0 361 254" fill="none" xmlns="http://www.w3.org/2000/svg">
<rect x="19" y="2" width="326" height="221" rx="19" stroke="#D9D9D9" stroke-width="4"/>
<mask id="path-2-inside-1_458_119" fill="white">
<path d="M202 115C202 117.626 201.483 120.227 200.478 122.654C199.472 125.08 197.999 127.285 196.142 129.142C194.285 130.999 192.08 132.472 189.654 133.478C187.227 134.483 184.626 135 182 135C179.374 135 176.773 134.483 174.346 133.478C171.92 132.472 169.715 130.999 167.858 129.142C166.001 127.285 164.528 125.08 163.522 122.654C162.517 120.227 162 117.626 162 115H165.732C165.732 117.136 166.153 119.252 166.971 121.225C167.788 123.199 168.986 124.992 170.497 126.503C172.008 128.014 173.801 129.212 175.775 130.029C177.748 130.847 179.864 131.268 182 131.268C184.136 131.268 186.252 130.847 188.225 130.029C190.199 129.212 191.992 128.014 193.503 126.503C195.014 124.992 196.212 123.199 197.029 121.225C197.847 119.252 198.268 117.136 198.268 115H202Z"/>
</mask>
<path d="M202 115C202 117.626 201.483 120.227 200.478 122.654C199.472 125.08 197.999 127.285 196.142 129.142C194.285 130.999 192.08 132.472 189.654 133.478C187.227 134.483 184.626 135 182 135C179.374 135 176.773 134.483 174.346 133.478C171.92 132.472 169.715 130.999 167.858 129.142C166.001 127.285 164.528 125.08 163.522 122.654C162.517 120.227 162 117.626 162 115H165.732C165.732 117.136 166.153 119.252 166.971 121.225C167.788 123.199 168.986 124.992 170.497 126.503C172.008 128.014 173.801 129.212 175.775 130.029C177.748 130.847 179.864 131.268 182 131.268C184.136 131.268 186.252 130.847 188.225 130.029C190.199 129.212 191.992 128.014 193.503 126.503C195.014 124.992 196.212 123.199 197.029 121.225C197.847 119.252 198.268 117.136 198.268 115H202Z" stroke="#D9D9D9" stroke-width="8" mask="url(#path-2-inside-1_458_119)"/>
<circle cx="217" cy="90" r="5" fill="#D9D9D9"/>
<circle cx="148" cy="90" r="5" fill="#D9D9D9"/>
<path d="M351 244L55.0678 244L10 244" stroke="#E6E6E6" stroke-width="19" stroke-linecap="round"/>
</svg>
