<svg width="361" height="265" viewBox="0 0 361 265" fill="none" xmlns="http://www.w3.org/2000/svg">
<path d="M351 255L55.0678 255L10 255" stroke="#E6E6E6" stroke-width="19" stroke-linecap="round"/>
<rect x="17" y="2" width="326" height="221" rx="19" stroke="#D9D9D9" stroke-width="4" stroke-dasharray="16 16"/>
<path d="M162 76L135 103M135 76L162 103" stroke="#D9D9D9" stroke-width="4"/>
<path d="M226 76L199 103M199 76L226 103" stroke="#D9D9D9" stroke-width="4"/>
<mask id="path-5-inside-1_458_120" fill="white">
<path d="M160 136C160 133.374 160.517 130.773 161.522 128.346C162.528 125.92 164.001 123.715 165.858 121.858C167.715 120.001 169.92 118.528 172.346 117.522C174.773 116.517 177.374 116 180 116C182.626 116 185.227 116.517 187.654 117.522C190.08 118.528 192.285 120.001 194.142 121.858C195.999 123.715 197.472 125.92 198.478 128.346C199.483 130.773 200 133.374 200 136L196.268 136C196.268 133.864 195.847 131.748 195.029 129.775C194.212 127.801 193.014 126.008 191.503 124.497C189.992 122.986 188.199 121.788 186.225 120.971C184.252 120.153 182.136 119.732 180 119.732C177.864 119.732 175.748 120.153 173.775 120.971C171.801 121.788 170.008 122.986 168.497 124.497C166.986 126.008 165.788 127.801 164.971 129.775C164.153 131.748 163.732 133.864 163.732 136L160 136Z"/>
</mask>
<path d="M160 136C160 133.374 160.517 130.773 161.522 128.346C162.528 125.92 164.001 123.715 165.858 121.858C167.715 120.001 169.92 118.528 172.346 117.522C174.773 116.517 177.374 116 180 116C182.626 116 185.227 116.517 187.654 117.522C190.08 118.528 192.285 120.001 194.142 121.858C195.999 123.715 197.472 125.92 198.478 128.346C199.483 130.773 200 133.374 200 136L196.268 136C196.268 133.864 195.847 131.748 195.029 129.775C194.212 127.801 193.014 126.008 191.503 124.497C189.992 122.986 188.199 121.788 186.225 120.971C184.252 120.153 182.136 119.732 180 119.732C177.864 119.732 175.748 120.153 173.775 120.971C171.801 121.788 170.008 122.986 168.497 124.497C166.986 126.008 165.788 127.801 164.971 129.775C164.153 131.748 163.732 133.864 163.732 136L160 136Z" stroke="#D9D9D9" stroke-width="8" mask="url(#path-5-inside-1_458_120)"/>
</svg>
